<svg width="234" height="205" viewBox="0 0 234 205" fill="none" xmlns="http://www.w3.org/2000/svg">
<path d="M222.639 102.37C222.675 123.873 215.609 144.829 202.463 162.206C191.839 176.297 177.641 187.526 161.226 194.818C144.81 202.111 126.728 205.222 108.708 203.856C90.6884 202.49 73.3338 196.691 58.3046 187.014C43.2754 177.337 31.0743 164.106 22.8685 148.587C14.6628 133.068 10.7268 115.779 11.4371 98.3752C12.1474 80.9712 17.4802 64.0339 26.9255 49.1836C36.3707 34.3332 49.6124 22.0666 65.3839 13.557C81.1553 5.04746 98.9289 0.579684 117.005 0.581055C119.903 0.581055 122.772 0.69285 125.612 0.916445C141.977 2.1761 157.807 7.11977 171.828 15.3497C187.344 24.4238 200.172 37.1987 209.072 52.4413C217.972 67.684 222.645 84.88 222.639 102.37Z" fill="#455A64"/>
<g opacity="0.2">
<path d="M139.819 150.41C138.485 153.821 140.703 153.975 140.851 155.402C140.998 156.828 140.851 159.534 136.562 163.673C132.273 167.811 125.17 166.947 123.69 168.658C122.209 170.369 119.696 177.64 116.144 180.067C112.593 182.494 112.015 181.062 106.971 182.062C101.927 183.063 98.1274 189.344 96.6172 192.323C95.1069 195.302 96.9121 200.31 93.3607 200.452C89.8093 200.594 88.181 193.181 84.9305 189.191C81.6799 185.2 80.6357 181.63 79.621 176.929C78.6063 172.228 80.2109 162.388 79.621 158.539C79.031 154.691 68.359 147.847 64.5008 143.14C60.6426 138.433 55.339 129.031 55.6517 125.893C56.1001 122.849 57.6758 120.065 60.088 118.054C61.8579 116.769 61.1263 116.058 61.4213 114.916C61.7163 113.773 63.1911 113.489 63.492 112.073C63.7929 110.658 62.6071 106.389 61.1322 105.661C59.6574 104.934 58.6191 107.367 57.7283 106.94C56.8375 106.514 54.1886 103.529 53.1444 103.234C52.1002 102.938 52.4011 105.087 50.9263 102.381C49.4514 99.6753 48.7022 92.831 47.5223 91.6884C46.3424 90.5458 45.4516 93.6837 42.6376 91.6884C39.8236 89.6931 38.6437 85.8446 37.4579 85.2761C36.2721 84.7077 34.6498 85.4183 33.4345 83.133C32.2192 80.8478 34.5023 76.7208 33.4345 77.1472C32.3667 77.5735 30.0659 80.8535 29.4701 77.7156C28.8743 74.5777 32.4198 64.0328 31.8299 58.3311C31.2399 52.6294 33.3047 46.6378 37.4461 41.7946C37.4461 41.7946 38.036 38.6566 38.626 36.6784C39.2159 34.7002 51.941 26.7019 53.4217 24.4167C54.0116 23.4674 54.2417 21.9723 54.4659 20.3636C72.5785 7.49079 94.4992 0.556862 117.006 0.581118C119.904 0.581118 122.773 0.692913 125.613 0.916508L125.908 1.29738C127.188 2.86064 128.574 3.86114 132.32 5.19134C136.067 6.52154 136.957 8.23261 136.167 9.65944C135.376 11.0863 134.096 11.3648 132.627 11.4671C131.158 11.5695 129.766 10.7964 128.191 11.7514C126.616 12.7064 125.035 17.8339 122.964 18.1181C120.893 18.4024 117.242 13.5705 116.475 12.1322C115.708 10.694 118.244 7.66414 117.065 6.23731C115.885 4.81047 113.737 5.10038 110.381 4.81047C107.024 4.52055 99.2424 5.76548 99.5374 6.99905C99.8324 8.23261 110.976 6.80577 111.271 9.27289C111.566 11.74 103.089 15.9239 101.608 15.526C100.127 15.128 98.1569 12.6837 95.9859 12.3937C93.8149 12.1038 92.0392 13.8149 90.6765 14.0082C89.3137 14.2014 87.7268 12.5813 85.6266 12.9622C83.5264 13.3431 83.0662 15.0541 81.9748 15.7192C80.8834 16.3843 78.329 16.3843 78.034 17.9021C77.7391 19.4199 81.2905 20.284 82.1636 21.2333C83.0367 22.1826 81.0781 25.4115 81.963 26.0766C82.848 26.7417 88.3757 22.0974 89.7621 20.9604C91.1484 19.8235 92.3224 14.8836 95.2839 14.9746C98.2454 15.0655 99.2306 19.9145 100.216 20.392C101.201 20.8695 103.372 19.2551 106.623 19.9145C109.873 20.5739 112.144 27.4239 112.74 29.5158C113.336 31.6077 114.711 33.6997 113.531 34.5524C112.351 35.405 107.041 33.9839 106.328 32.6537C105.614 31.3235 109.867 29.3225 109.584 28.8507C109.301 28.3789 106.823 27.7138 105.537 28.4528C104.251 29.1918 103.667 30.7266 102.287 31.1302C100.906 31.5338 97.2543 27.5205 96.2691 28.6631C95.2839 29.8057 97.2543 33.4154 98.2395 34.2681C99.2247 35.1208 102.876 35.5983 103.171 36.542C103.466 37.4856 100.705 39.5832 97.3546 39.3843C94.0037 39.1853 91.2369 36.7239 89.9567 37.7698C88.6766 38.8158 89.3668 41.5672 88.476 42.5222C87.5852 43.4772 82.7536 42.8064 80.3879 45.2735C78.0222 47.7407 76.8896 51.4754 74.5298 53.5674C72.17 55.6593 71.0786 52.9989 67.9225 55.9436C64.7663 58.8882 64.2707 65.4482 64.1704 67.7278C64.0701 70.0073 64.1704 71.815 63.3858 71.5308C62.6012 71.2465 61.5098 69.2569 61.2148 68.012C60.9198 66.7671 61.9051 64.6865 61.9051 63.9247C61.9051 63.163 57.3684 59.269 54.7019 58.8882C52.0353 58.5073 49.6697 60.5936 47.6993 62.117C45.7289 63.6405 42.1774 63.3563 40.8973 64.5898C39.6171 65.8234 38.626 76.7549 39.6112 79.3244C40.5964 81.8938 41.8825 81.8881 45.0386 80.5579C48.1948 79.2277 46.4191 76.6583 48.2951 77.2324C50.1711 77.8066 51.1504 79.7052 51.1504 81.2116C51.1504 82.7181 47.4043 86.3278 47.8999 87.3908C48.3954 88.4538 51.646 87.1975 53.2093 87.675C54.7727 88.1526 55.5691 89.1019 55.0853 92.9958C54.6016 96.8898 54.8907 99.9368 57.2563 101.216C59.622 102.495 60.9553 99.3626 61.9758 99.7946C62.9964 100.227 64.4949 102.501 65.9756 102.358C67.4564 102.216 66.7131 100.932 69.5153 100.085C72.3175 99.2375 71.2851 98.6577 71.8751 96.9467C72.465 95.2356 74.2348 93.8088 76.1639 94.6728C78.093 95.5369 76.7539 96.8102 76.9014 98.2371C77.0488 99.6639 80.441 99.806 83.1193 100.659C85.7977 101.511 87.2489 100.659 92.5584 102.364C97.8679 104.069 98.1805 109.186 100.399 110.061C102.617 110.936 110.015 109.493 115.342 113.199C120.669 116.905 119.188 123.75 121.831 125.745C124.474 127.74 134.409 130.446 138.255 131.162C142.102 131.879 142.692 129.309 145.801 130.025C148.91 130.742 150.679 131.594 151.7 135.71C152.709 139.365 141.146 146.988 139.819 150.41Z" fill="black"/>
<path d="M60.3178 77.5165C60.4181 78.3237 62.884 78.6534 65.8396 80.2735C68.7952 81.8936 69.8866 86.6403 71.4618 86.5266C73.0369 86.4129 72.5473 84.2527 73.1431 83.6843C73.7389 83.1158 74.7182 81.8766 73.1431 80.643C71.5679 79.4095 70.0282 76.7434 67.1434 76.3625C64.2586 75.9816 63.7689 74.8447 62.4888 74.9414C62.1596 74.9434 61.8351 75.0157 61.5383 75.153C61.2416 75.2902 60.9801 75.4891 60.7726 75.7352C60.565 75.9814 60.4166 76.2688 60.338 76.5767C60.2594 76.8847 60.2525 77.2056 60.3178 77.5165Z" fill="black"/>
<path d="M76.594 85.4975C76.1516 86.6628 76.594 87.4985 79.7502 88.2545C82.9064 89.0106 85.862 87.4985 84.8768 86.8788C83.8916 86.2592 82.4108 86.5435 83.0067 85.4975C83.6025 84.4515 83.396 82.9337 80.8298 83.2236C78.2635 83.5136 76.9893 84.4572 76.594 85.4975Z" fill="black"/>
<path d="M87.6361 85.8215C86.5624 85.975 85.9607 87.7827 87.0462 88.9196C88.1317 90.0565 88.1317 89.8689 89.4059 88.9196C90.6802 87.9703 92.6624 87.4985 92.1669 86.5491C91.6713 85.5998 88.7216 85.6737 87.6361 85.8215Z" fill="black"/>
<path d="M96.2213 89.7104C96.705 88.2836 99.171 89.7104 100.262 91.2055C101.354 92.7005 100.852 94.9118 100.262 96.5263C99.6724 98.1407 99.2771 100.039 97.9026 99.2833C96.528 98.5272 98.0029 96.242 97.8023 94.9118C97.6017 93.5816 95.826 90.8758 96.2213 89.7104Z" fill="black"/>
<path d="M138.733 10.4206C138.214 11.6144 140.603 12.0351 141.983 12.7968C143.364 13.5585 144.449 14.0304 145.24 12.7968C146.03 11.5632 144.945 10.1307 143.859 9.84649C142.774 9.56226 139.222 9.27803 138.733 10.4206Z" fill="black"/>
<path d="M157.368 21.5405C158.283 22.4614 159.834 22.2966 160.908 23.6325C161.982 24.9683 161.598 27.2422 162.979 27.9073C164.359 28.5724 165.338 27.9073 165.444 26.958C165.551 26.0086 163.474 23.6325 163.675 23.155C163.875 22.6774 166.536 23.8201 167.132 25.2469C167.728 26.6737 166.542 28.6577 167.916 29.0442C169.291 29.4308 169.002 27.714 169.598 27.3388C170.194 26.9636 171.468 27.1456 171.367 26.0029C171.267 24.8603 169.686 22.3932 168.418 21.5405C167.149 20.6878 166.147 19.7328 163.981 19.2667C161.816 18.8005 159.74 19.1757 158.672 20.0284C157.604 20.8811 156.808 20.9664 157.368 21.5405Z" fill="black"/>
<path d="M200.044 39.4527C199.983 39.8374 199.788 40.1904 199.49 40.4532C197.413 41.8744 194.947 36.9344 192.092 35.9851C189.237 35.0358 187.962 31.517 187.372 32.2787C186.782 33.0405 186.977 34.0864 186.092 35.32C185.207 36.5536 183.921 36.2693 183.331 38.6455C182.741 41.0217 186.092 45.3931 185.302 46.82C184.511 48.2468 183.532 47.7693 181.945 47.6783C180.358 47.5874 180.665 48.9119 178.6 48.3378C176.535 47.7636 178.299 45.2965 175.06 42.3519C171.822 39.4072 170.718 38.8388 171.414 37.5029C172.111 36.167 171.119 34.274 172.594 34.0921C174.069 33.9102 175.261 35.9908 176.246 36.5592C177.231 37.1277 178.511 35.4223 178.606 33.8988C178.7 32.3754 175.155 30.2891 173.886 29.1067C172.618 27.9243 172.459 23.6268 172.954 22.7854C173.45 21.9441 174.931 22.217 175.314 20.125C175.544 18.8972 173.544 16.845 171.822 15.3613C182.646 21.7042 192.204 29.8634 200.044 39.4527Z" fill="black"/>
<path d="M214.777 124.659C215.072 121.618 213.491 121.425 215.072 115.82C216.653 110.215 213.397 104.223 212.211 102.99C211.025 101.756 208.465 102.131 206.394 103.371C204.324 104.61 205.804 105.554 204.418 106.031C203.032 106.509 201.657 105.741 200.377 105.838C199.097 105.934 197.911 109.072 195.15 108.976C192.389 108.879 190.613 105.076 188.543 102.37C186.472 99.6643 182.224 97.9532 180.873 94.622C179.522 91.2908 182.154 86.169 181.564 82.2693C180.974 78.3697 178.307 79.2281 177.812 77.0452C177.316 74.8623 178.207 75.9083 178.897 73.8106C179.587 71.713 178.107 70.5818 179.487 66.9891C180.868 63.3964 183.333 61.5717 182.738 59.9572C182.142 58.3428 180.272 55.6824 180.171 53.7837C180.071 51.8851 182.047 51.976 185.794 49.31C189.54 46.6439 190.513 46.8428 193.392 47.7922C195.445 48.5227 197.556 49.093 199.704 49.4976C201.38 49.7818 203.651 53.9657 204.341 53.7724C205.032 53.5791 205.132 52.3512 205.427 50.5435C205.615 49.7588 206.042 49.0462 206.654 48.4971C217.786 65.7001 223.336 85.7134 222.592 105.974C221.849 126.235 214.847 145.82 202.483 162.223C212.524 147.409 214.476 127.695 214.777 124.659Z" fill="black"/>
</g>
<path opacity="0.1" d="M198.842 166.731C187.573 180.039 172.993 190.382 156.459 196.799C139.925 203.216 121.974 205.497 104.279 203.43C86.584 201.363 69.7192 195.015 55.2551 184.978C40.791 174.94 29.1979 161.539 21.5551 146.022C13.9124 130.505 10.4685 113.377 11.5441 96.2327C12.6197 79.0882 18.1799 62.4847 27.7069 47.9681C37.234 33.4515 50.4181 21.4938 66.0317 13.2083C81.6454 4.92275 99.181 0.57887 117.006 0.581056C119.904 0.581056 122.775 0.692851 125.619 0.916446C126.403 0.973292 127.188 1.04151 127.979 1.12678C113.046 2.68918 98.6959 7.57866 86.0632 15.4084C73.4305 23.238 62.8622 33.7931 55.1942 46.2384C47.5263 58.6837 42.9692 72.6777 41.8836 87.1132C40.798 101.549 43.2136 116.03 48.9392 129.41C54.6649 142.791 63.5436 154.704 74.8727 164.207C86.2019 173.71 99.6706 180.542 114.213 184.162C128.756 187.783 143.974 188.093 158.662 185.067C173.35 182.042 187.107 175.764 198.842 166.731Z" fill="black"/>
<path opacity="0.3" d="M222.64 102.37C222.677 123.873 215.611 144.83 202.464 162.206C192.555 175.334 179.546 186 164.513 193.324C177.601 186.103 188.954 176.294 197.827 164.542C210.264 148.045 217.307 128.345 218.055 107.967C218.802 87.5883 213.219 67.4588 202.021 50.1566C199.987 47.009 197.773 43.9725 195.39 41.0612C187.515 31.4136 177.91 23.2024 167.032 16.8163C152.926 8.54678 137.004 3.5818 120.544 2.32055C117.695 2.09885 114.798 1.98516 111.89 1.98516C103.292 1.97972 94.7248 2.97607 86.375 4.95252C96.3065 2.05307 106.627 0.580085 117.005 0.581055C119.903 0.581055 122.774 0.69285 125.618 0.916445C152.058 2.99284 176.719 14.5825 194.696 33.3804C212.673 52.1784 222.649 76.8075 222.64 102.37Z" fill="white"/>
<path opacity="0.7" d="M138.438 78.6882C155.231 77.2187 171.803 73.9605 187.851 68.9732C187.851 68.9732 185.444 67.3531 182.777 67.8362C182.777 67.8362 177.604 57.7802 168.808 59.6561C160.625 61.3615 157.298 69.03 157.304 69.0584C157.31 69.0869 153.487 66.4663 149.817 68.4445C146.148 70.4228 144.071 74.8852 144.071 74.8852C144.071 74.8852 139.936 76.943 138.438 78.6882Z" fill="#DBDBDB"/>
<path d="M67.8718 93.8038C46.8088 89.2715 26.5193 81.8838 7.60938 71.8612C7.60938 71.8214 7.57398 68.9905 15.5972 72.3558C15.5972 72.316 22.8888 63.1012 34.4753 69.2179C41.6785 72.9981 45.4364 81.724 45.4305 81.724C45.4246 81.724 50.9523 77.5003 55.4182 79.8594C59.884 82.2186 62.5506 89.2163 62.5506 89.222C62.5506 89.2277 67.1639 91.9904 67.8718 93.8038Z" fill="#EBEBEB"/>
<path d="M227.794 83.7696C208.883 93.7897 188.593 101.177 167.531 105.712C167.531 105.672 167.531 102.87 176.097 100.158C176.097 100.118 183.932 85.3783 195.565 83.076C202.81 81.6037 206.432 87.6237 206.438 87.6635C206.444 87.7033 211.836 79.4777 216.077 78.6648C220.319 77.8519 222.809 82.9623 222.809 82.9737C222.809 82.9851 227.151 82.4735 227.794 83.7696Z" fill="#EBEBEB"/>
<path d="M125.636 38.5489C111.212 39.0283 96.7729 38.1927 82.5117 36.0534C82.5117 36.0534 86.5587 33.8762 88.358 34.0922C90.1574 34.3082 95.4373 25.6676 102.174 26.5032C108.912 27.3389 112.516 34.2571 112.516 34.2741C112.516 34.2912 120.734 32.5289 125.636 38.5489Z" fill="#EBEBEB"/>
<path d="M105.062 197.871C90.6184 197.095 76.2836 195.001 62.25 191.618C62.25 191.618 66.238 189.793 68.0255 190.163C69.813 190.532 74.9986 182.352 81.7003 183.773C88.4021 185.195 91.9771 192.425 91.9771 192.442C91.9771 192.46 100.16 191.419 105.062 197.871Z" fill="#EBEBEB"/>
<path opacity="0.7" d="M61.6777 144.26C49.5669 141.311 37.7283 137.407 26.2812 132.589C27.3792 131.985 28.6774 131.814 29.9035 132.112C29.9035 132.112 33.5965 125.091 39.8912 127.24C45.7493 129.207 48.1504 135.198 48.1504 135.198C48.9853 134.764 49.9287 134.561 50.8762 134.611C51.8236 134.661 52.7382 134.963 53.5188 135.483C56.15 137.319 57.6484 140.82 57.6484 140.82C57.6484 140.82 60.5922 142.804 61.6777 144.26Z" fill="#DBDBDB"/>
<path opacity="0.7" d="M147.09 183.012C163.848 180.92 180.314 177.044 196.185 171.455C196.185 171.455 193.825 169.926 191.158 170.489C191.158 170.489 186.038 160.626 177.307 162.831C169.177 164.832 165.868 172.632 165.874 172.66C165.879 172.688 162.08 170.21 158.429 172.325C154.777 174.439 152.706 178.976 152.706 178.976C152.706 178.976 148.571 181.204 147.09 183.012Z" fill="#DBDBDB"/>
<path d="M212.041 129.866C211.888 128.394 210.861 126.933 208.991 126.933C207.121 126.933 206.095 128.394 205.941 129.866C205.705 132.14 207.298 134.192 208.991 136.068C210.684 134.203 212.277 132.134 212.041 129.866ZM208.991 131.497C208.661 131.497 208.338 131.403 208.064 131.226C207.789 131.049 207.575 130.798 207.449 130.504C207.322 130.21 207.289 129.887 207.354 129.575C207.418 129.263 207.577 128.976 207.811 128.751C208.044 128.526 208.342 128.373 208.666 128.311C208.989 128.249 209.325 128.281 209.63 128.402C209.935 128.524 210.196 128.73 210.379 128.995C210.563 129.259 210.661 129.57 210.661 129.889C210.659 130.315 210.483 130.723 210.17 131.025C209.857 131.326 209.434 131.496 208.991 131.497Z" fill="#8CB369"/>
<path d="M112.619 170.585C112.419 168.613 111.009 166.651 108.531 166.651C106.053 166.651 104.649 168.613 104.449 170.585C104.136 173.626 106.266 176.378 108.531 178.89C110.808 176.366 112.932 173.615 112.619 170.585ZM108.531 172.768C108.089 172.767 107.657 172.64 107.29 172.402C106.924 172.165 106.638 171.828 106.47 171.434C106.301 171.04 106.258 170.607 106.345 170.19C106.432 169.772 106.645 169.389 106.958 169.088C107.271 168.787 107.669 168.583 108.103 168.5C108.536 168.417 108.986 168.46 109.394 168.624C109.802 168.787 110.151 169.063 110.396 169.417C110.642 169.771 110.773 170.188 110.773 170.614C110.77 171.184 110.532 171.73 110.112 172.132C109.691 172.533 109.123 172.758 108.531 172.757V172.768Z" fill="#8CB369"/>
<path d="M195.139 55.0511C194.938 53.0842 193.528 51.123 191.051 51.123C188.573 51.123 187.169 53.0842 186.968 55.0511C186.655 58.0924 188.785 60.8494 191.051 63.362C193.328 60.8722 195.463 58.0924 195.139 55.0511ZM191.051 57.2397C190.607 57.2397 190.173 57.1129 189.804 56.8752C189.436 56.6376 189.148 56.2999 188.979 55.9049C188.809 55.5098 188.765 55.0752 188.852 54.656C188.939 54.2368 189.153 53.8519 189.467 53.5501C189.782 53.2482 190.182 53.0429 190.617 52.9602C191.052 52.8775 191.503 52.9211 191.913 53.0855C192.322 53.2498 192.672 53.5276 192.917 53.8836C193.163 54.2395 193.293 54.6577 193.292 55.0852C193.292 55.3686 193.234 55.6493 193.122 55.911C193.009 56.1728 192.844 56.4105 192.635 56.6107C192.427 56.8108 192.18 56.9694 191.908 57.0773C191.636 57.1853 191.345 57.2404 191.051 57.2397Z" fill="#8CB369"/>
<path d="M137.018 136.426C136.865 134.954 135.838 133.487 133.968 133.487C132.098 133.487 131.065 134.954 130.918 136.426C130.682 138.7 132.269 140.752 133.968 142.628C135.661 140.752 137.254 138.694 137.018 136.426ZM133.968 138.058C133.636 138.059 133.311 137.965 133.035 137.788C132.758 137.611 132.543 137.359 132.415 137.064C132.288 136.769 132.254 136.443 132.319 136.13C132.383 135.816 132.543 135.528 132.777 135.302C133.012 135.076 133.311 134.922 133.637 134.86C133.962 134.798 134.3 134.83 134.606 134.953C134.912 135.076 135.174 135.284 135.358 135.55C135.541 135.816 135.639 136.129 135.637 136.449C135.636 136.875 135.46 137.284 135.147 137.585C134.834 137.886 134.41 138.056 133.968 138.058Z" fill="#8CB369"/>
<path d="M73.8889 107.537C73.7355 106.064 72.7091 104.604 70.8389 104.604C68.9688 104.604 67.9423 106.064 67.7889 107.537C67.553 109.811 69.1458 111.863 70.8389 113.739C72.5321 111.863 74.1249 109.805 73.8889 107.537ZM70.8389 109.191C70.509 109.19 70.1868 109.095 69.913 108.917C69.6392 108.74 69.4262 108.488 69.3007 108.194C69.1752 107.9 69.143 107.577 69.2081 107.265C69.2732 106.953 69.4327 106.667 69.6664 106.443C69.9001 106.218 70.1976 106.066 70.5213 106.004C70.845 105.942 71.1804 105.975 71.4851 106.097C71.7898 106.218 72.0502 106.425 72.2334 106.689C72.4166 106.954 72.5144 107.264 72.5144 107.582C72.5152 107.794 72.4723 108.004 72.3883 108.2C72.3043 108.396 72.1809 108.574 72.025 108.724C71.8692 108.873 71.6842 108.991 71.4806 109.072C71.277 109.152 71.0589 109.193 70.8389 109.191Z" fill="#8CB369"/>
<path d="M39.0061 56.404C38.8527 54.9317 37.8262 53.4707 35.9561 53.4707C34.086 53.4707 33.0595 54.9317 32.9061 56.404C32.6702 58.6778 34.263 60.73 35.9561 62.6059C37.6493 60.73 39.2421 58.6721 39.0061 56.404ZM35.9561 58.0298C35.6259 58.0298 35.3031 57.9354 35.0286 57.7586C34.754 57.5819 34.54 57.3306 34.4137 57.0367C34.2873 56.7427 34.2543 56.4192 34.3187 56.1072C34.3831 55.7951 34.5421 55.5084 34.7756 55.2835C35.0091 55.0585 35.3066 54.9053 35.6304 54.8432C35.9543 54.7811 36.29 54.813 36.595 54.9347C36.9001 55.0565 37.1608 55.2627 37.3443 55.5272C37.5277 55.7918 37.6257 56.1028 37.6257 56.421C37.6257 56.6323 37.5825 56.8415 37.4986 57.0367C37.4147 57.2318 37.2917 57.4092 37.1367 57.5586C36.9816 57.708 36.7976 57.8265 36.595 57.9073C36.3925 57.9882 36.1754 58.0298 35.9561 58.0298Z" fill="#8CB369"/>
<path d="M80.5334 29.7259C80.3328 27.759 78.9228 25.7979 76.4451 25.7979C73.9673 25.7979 72.5633 27.759 72.3627 29.7259C72.05 32.7672 74.1797 35.5185 76.4451 38.0311C78.7163 35.5185 80.846 32.7672 80.5334 29.7259ZM76.4451 31.9145C76.0017 31.9145 75.5683 31.7878 75.1996 31.5504C74.831 31.3131 74.5436 30.9757 74.3739 30.581C74.2043 30.1863 74.1599 29.7519 74.2464 29.3329C74.3329 28.9139 74.5464 28.529 74.8599 28.2269C75.1734 27.9248 75.5729 27.719 76.0077 27.6357C76.4426 27.5523 76.8933 27.5951 77.303 27.7586C77.7126 27.9221 78.0627 28.199 78.309 28.5542C78.5554 28.9095 78.6869 29.3271 78.6869 29.7543C78.6869 30.038 78.6289 30.3189 78.5162 30.581C78.4035 30.8431 78.2384 31.0812 78.0303 31.2818C77.8221 31.4824 77.5749 31.6415 77.303 31.7501C77.031 31.8586 76.7395 31.9145 76.4451 31.9145Z" fill="#8CB369"/>
<g opacity="0.6">
<path d="M113.17 154.805C113.17 154.805 11.5228 176.128 1.3758 159.478C-3.34373 151.713 18.9088 140.179 18.9088 140.179C18.9088 140.179 4.10133 150.343 10.8562 154.345C23.4514 161.797 92.9818 144.874 92.9818 144.874L113.17 154.805Z" fill="#EBEBEB"/>
<path d="M52.6992 166.726L67.8961 164.583C70.4269 164.213 72.9578 163.895 75.4827 163.503C78.0077 163.11 80.5326 162.769 83.0576 162.366C85.5825 161.962 88.1016 161.598 90.6147 161.172C93.1279 160.745 95.6351 160.308 98.1601 159.91C103.18 159 108.189 158.023 113.198 156.977C108.374 158.672 103.449 160.086 98.4491 161.212C95.9478 161.78 93.4346 162.292 90.9156 162.758C88.3965 163.224 85.8657 163.633 83.3348 164.048C80.804 164.463 78.2614 164.776 75.7128 165.077C74.4444 165.225 73.1702 165.373 71.8959 165.503C70.6216 165.634 69.3415 165.776 68.0672 165.879C62.9229 166.356 57.8022 166.692 52.6992 166.726Z" fill="#EBEBEB"/>
<path d="M14.3122 146.756C13.9207 147.304 13.6257 147.911 13.4391 148.552C13.3599 148.855 13.3203 149.166 13.3211 149.479C13.334 149.767 13.4083 150.049 13.5394 150.309C13.8154 150.825 14.2586 151.24 14.8018 151.491C15.3626 151.778 15.9567 151.999 16.5717 152.151C17.8889 152.447 19.2318 152.626 20.5833 152.685C21.946 152.787 23.3324 152.804 24.7128 152.793C26.0933 152.782 27.4856 152.759 28.8778 152.708C30.2701 152.656 31.6623 152.594 33.0546 152.537C35.8509 152.423 38.6531 152.247 41.4849 152.236C38.773 152.948 36.0161 153.491 33.2316 153.862C32.5355 153.97 31.8334 154.055 31.1314 154.117C30.4294 154.18 29.7273 154.271 29.0194 154.316C27.6094 154.424 26.1877 154.476 24.7659 154.498C21.9224 154.459 19.0317 154.351 16.2118 153.418C15.4932 153.178 14.8123 152.843 14.1883 152.423C13.5111 151.983 13.0031 151.339 12.7429 150.593C12.5386 149.852 12.6312 149.065 13.0025 148.387C13.3207 147.764 13.7662 147.209 14.3122 146.756Z" fill="#EBEBEB"/>
<path d="M97.6719 69.4903C97.6719 69.4903 199.49 48.9348 201.69 29.772C202.717 20.8244 177.503 19.0508 177.503 19.0508C177.503 19.0508 194.469 22.0125 190.859 28.8113C183.078 43.4776 97.6719 69.4903 97.6719 69.4903Z" fill="#EBEBEB"/>
<path d="M157.946 56.5693C153.226 58.5533 148.43 60.2643 143.575 61.856C142.365 62.2653 141.144 62.6462 139.923 63.0214C138.702 63.3966 137.481 63.7717 136.254 64.1583C133.799 64.8859 131.328 65.5397 128.862 66.2161C126.396 66.8926 123.894 67.4724 121.393 68.0238C118.892 68.5752 116.378 69.0982 113.865 69.5757C108.822 70.5194 103.723 71.1668 98.5977 71.5142C103.624 70.4966 108.627 69.4223 113.57 68.274C116.042 67.643 118.532 67.137 120.992 66.4549C123.452 65.7727 125.93 65.2099 128.396 64.5733C130.862 63.9366 133.327 63.2829 135.782 62.6121C138.236 61.9413 140.702 61.2705 143.162 60.6168L157.946 56.5693Z" fill="#EBEBEB"/>
<path d="M184.497 23.2402C185.207 23.4707 185.825 23.9076 186.266 24.4908C186.5 24.802 186.67 25.1531 186.768 25.5254C186.854 25.8984 186.879 26.2818 186.845 26.6624C186.754 27.4161 186.503 28.1437 186.107 28.7998C185.741 29.4411 185.308 30.0449 184.815 30.6018C182.832 32.7065 180.543 34.5236 178.019 35.9965C176.78 36.7412 175.529 37.4461 174.249 38.1055C173.612 38.4352 172.963 38.7479 172.314 39.0548C171.665 39.3618 171.016 39.6801 170.35 39.953C167.724 41.1204 165.022 42.123 162.262 42.9545C164.722 41.4765 167.241 40.152 169.719 38.7706C170.957 38.0714 172.214 37.4177 173.429 36.6957C174.645 35.9738 175.883 35.303 177.069 34.5583C178.255 33.8136 179.429 33.0803 180.609 32.2844C181.743 31.5027 182.817 30.6441 183.824 29.715C184.306 29.2524 184.75 28.7545 185.151 28.2256C185.553 27.7173 185.848 27.1379 186.019 26.5203C186.096 26.2212 186.13 25.9131 186.119 25.605C186.088 25.2928 186.004 24.9875 185.871 24.7012C185.56 24.1025 185.084 23.5973 184.497 23.2402Z" fill="#EBEBEB"/>
</g>
<path d="M128.726 159.478C127.959 158.625 117.275 151.434 116.473 150.894L118.296 150.593C118.296 150.593 128.065 158.591 128.726 159.478Z" fill="#8CB369"/>
<path opacity="0.5" d="M128.726 159.478C127.959 158.625 117.275 151.434 116.473 150.894L118.296 150.593C118.296 150.593 128.065 158.591 128.726 159.478Z" fill="white"/>
<path d="M128.76 159.54C128.76 159.54 128.76 159.54 128.76 159.574C128.678 159.756 127.946 159.916 127.126 160.024H127.097C126.341 160.158 125.568 160.174 124.808 160.069C124.577 159.916 116.867 156.198 112.147 153.924L111.959 153.839H111.923L111.257 153.515L109.31 152.582L108.555 152.219L116.489 150.911C116.944 151.212 120.548 153.64 123.74 155.851L124.07 156.078C124.365 156.283 124.66 156.488 124.943 156.681C126.26 157.552 127.528 158.49 128.742 159.489C128.742 159.489 128.742 159.518 128.742 159.529L128.76 159.54Z" fill="#8CB369"/>
<g opacity="0.1">
<path d="M128.762 159.541C128.762 159.541 128.762 159.541 128.762 159.575C128.68 159.757 127.948 159.916 127.128 160.024H127.099C126.343 160.159 125.57 160.174 124.81 160.069C124.574 159.916 116.663 156.09 111.961 153.816C112.734 154.18 122.881 158.881 124.94 156.659C126.256 157.53 127.524 158.468 128.739 159.467C128.739 159.467 128.739 159.495 128.739 159.507L128.762 159.541Z" fill="black"/>
</g>
<path d="M233.282 167.931C233.282 168.954 227.435 169.284 226.639 169.068C225.843 168.852 162.129 144.692 162.129 144.692L185.544 135.762L186.222 136.211L186.517 136.41C190.835 139.286 203.726 147.898 214.982 155.476L215.648 155.925L216.533 156.493C224.338 161.78 231.105 166.368 233.282 167.931Z" fill="#8CB369"/>
<path d="M233.281 167.931C227.582 163.833 190.41 139.014 185.543 135.768L188.493 134.631C188.493 134.631 231.794 166.368 233.104 167.63C233.201 167.705 233.264 167.813 233.281 167.931Z" fill="#8CB369"/>
<path opacity="0.5" d="M233.281 167.931C227.582 163.833 190.41 139.014 185.543 135.768L188.493 134.631C188.493 134.631 231.794 166.368 233.104 167.63C233.201 167.705 233.264 167.813 233.281 167.931Z" fill="white"/>
<g opacity="0.5">
<path opacity="0.1" d="M233.282 167.93C233.282 168.953 227.435 169.283 226.639 169.067C225.843 168.851 162.129 144.691 162.129 144.691L185.544 135.761C185.544 135.761 179.756 142.139 193.496 151.956C202.858 158.647 212.828 160.034 216.504 156.504C224.338 161.779 231.105 166.367 233.282 167.93Z" fill="black"/>
</g>
<path d="M180.215 152.617C178.404 153.464 176.44 154.123 176.292 152.372C176.239 151.656 176.817 150.889 179.726 149.53C180.404 149.212 182.086 148.507 182.563 149.962C183.041 151.417 180.894 152.293 180.215 152.617Z" fill="#8CB369"/>
<path opacity="0.1" d="M180.215 152.617C178.404 153.464 176.44 154.123 176.292 152.372C176.239 151.656 176.817 150.889 179.726 149.53C180.404 149.212 182.086 148.507 182.563 149.962C183.041 151.417 180.894 152.293 180.215 152.617Z" fill="black"/>
<path d="M194.982 158.438C193.171 159.285 191.2 159.95 191.059 158.199C191 157.477 191.578 156.71 194.492 155.357C195.171 155.039 196.852 154.339 197.33 155.795C197.808 157.25 195.66 158.12 194.982 158.438Z" fill="#8CB369"/>
<path opacity="0.1" d="M194.982 158.438C193.171 159.285 191.2 159.95 191.059 158.199C191 157.477 191.578 156.71 194.492 155.357C195.171 155.039 196.852 154.339 197.33 155.795C197.808 157.25 195.66 158.12 194.982 158.438Z" fill="black"/>
<path d="M209.745 164.258C207.94 165.105 205.97 165.77 205.828 164.02C205.769 163.303 206.347 162.536 209.256 161.177C209.94 160.865 211.615 160.16 212.099 161.615C212.583 163.07 210.43 163.94 209.745 164.258Z" fill="#8CB369"/>
<path opacity="0.1" d="M209.745 164.258C207.94 165.105 205.97 165.77 205.828 164.02C205.769 163.303 206.347 162.536 209.256 161.177C209.94 160.865 211.615 160.16 212.099 161.615C212.583 163.07 210.43 163.94 209.745 164.258Z" fill="black"/>
<path d="M204.905 148.984C203.135 152.037 199.088 153.134 196.533 154.1C189.743 156.715 184.823 158.182 182.375 152.241C182.084 151.555 181.901 150.831 181.832 150.092C181.431 145.613 186.251 143.373 188.693 142.134C191.643 140.633 193.731 139.667 195.289 139.036C197.825 138.001 198.958 137.899 200.12 137.836C201.495 137.791 204.592 138.126 205.613 143.606C206.054 145.423 205.802 147.331 204.905 148.984Z" fill="#8CB369"/>
<path d="M204.999 144.704C204.999 148.041 202.834 150.747 200.162 150.747C197.489 150.747 195.324 148.041 195.324 144.704C195.324 141.367 197.489 138.661 200.162 138.661C202.834 138.661 204.999 141.367 204.999 144.704Z" fill="#263238"/>
<path d="M204.435 144.703C204.435 147.653 202.524 150.041 200.164 150.041C197.804 150.041 195.887 147.653 195.887 144.703C195.887 141.753 197.804 139.359 200.164 139.359C202.524 139.359 204.435 141.753 204.435 144.703Z" fill="#455A64"/>
<path d="M103.611 143.101L102.49 143.499L99.9652 144.38L91.2341 140.747C82.7861 137.251 72.7572 133.136 70.8398 132.499L71.0817 132.567L71.3059 132.635L71.6009 132.726L71.7661 132.783L72.4327 132.988L73.117 133.204L75.0343 133.812L75.6951 134.022L76.285 134.221L76.6213 134.329L77.6655 134.665L78.3557 134.887L87.3405 137.797L88.19 138.076L91.535 139.161L97.3046 141.043L98.1187 141.31C99.0508 141.611 99.8885 141.879 100.632 142.129L101.275 142.339L101.57 142.436L101.723 142.481C102.927 142.885 103.611 143.101 103.611 143.101Z" fill="#8CB369"/>
<path opacity="0.5" d="M103.611 143.101L102.49 143.499L99.9652 144.38L91.2341 140.747C82.7861 137.251 72.7572 133.136 70.8398 132.499L71.0817 132.567L71.3059 132.635L71.6009 132.726L71.7661 132.783L72.4327 132.988L73.117 133.204L75.0343 133.812L75.6951 134.022L76.285 134.221L76.6213 134.329L77.6655 134.665L78.3557 134.887L87.3405 137.797L88.19 138.076L91.535 139.161L97.3046 141.043L98.1187 141.31C99.0508 141.611 99.8885 141.879 100.632 142.129L101.275 142.339L101.57 142.436L101.723 142.481C102.927 142.885 103.611 143.101 103.611 143.101Z" fill="white"/>
<path d="M99.9687 144.38L93.208 146.756C93.208 146.756 78.1055 140.002 69.0971 135.767L69.0027 135.728L68.8788 135.671L66.2713 134.443C63.941 133.306 62.4662 132.556 62.5251 132.453C62.7729 131.97 68.3774 131.851 70.6191 132.453H70.684L70.8256 132.499C72.6898 133.107 82.0994 136.961 90.3645 140.383L90.5532 140.457L91.2199 140.736L99.9687 144.38Z" fill="#8CB369"/>
<g opacity="0.1">
<path d="M99.9654 144.38L93.2046 146.756C93.2046 146.756 78.1021 140.003 69.0938 135.768C70.5863 136.382 85.8717 142.868 89.6355 141.964C89.9855 141.904 90.3146 141.762 90.5936 141.549C90.8726 141.337 91.0927 141.061 91.2342 140.747L99.9654 144.38Z" fill="black"/>
</g>
<path d="M117.363 135.09L100.957 142.696C100.957 142.696 101.122 129.138 101.252 119.389C101.252 119.054 101.252 118.724 101.252 118.4C101.252 118.076 101.252 117.866 101.252 117.604C101.293 114.267 101.335 111.578 101.352 110.356C101.411 106.434 101.848 105.638 102.927 106.275C104.007 106.911 108.797 110.93 110.237 112.721C111.417 114.188 114.036 123.09 115.741 129.206C115.741 129.263 115.741 129.309 115.776 129.36C115.877 129.718 115.977 130.065 116.065 130.394C116.85 133.146 117.363 135.09 117.363 135.09Z" fill="#8CB369"/>
<g opacity="0.1">
<path d="M117.363 135.091L100.957 142.697C100.957 142.697 101.122 129.139 101.252 119.39C103.665 124.585 108.437 131.68 116.089 130.395C116.85 133.146 117.363 135.091 117.363 135.091Z" fill="black"/>
</g>
<path d="M89.4945 150.985C87.8073 146.915 94.9751 143.22 103.116 139.701C111.257 136.182 191.501 102.08 203.135 99.0392C214.768 95.9979 228.313 100.176 230.602 106.56C234.036 116.167 219.565 124.216 167.585 144.982C160.771 147.705 130.307 154.754 113.175 154.805C94.8512 154.862 90.3263 152.963 89.4945 150.985Z" fill="#8CB369"/>
<path opacity="0.5" d="M89.4945 150.985C87.8073 146.915 94.9751 143.22 103.116 139.701C111.257 136.182 191.501 102.08 203.135 99.0392C214.768 95.9979 228.313 100.176 230.602 106.56C234.036 116.167 219.565 124.216 167.585 144.982C160.771 147.705 130.307 154.754 113.175 154.805C94.8512 154.862 90.3263 152.963 89.4945 150.985Z" fill="white"/>
<path opacity="0.1" d="M167.58 145.004C160.766 147.727 130.302 154.77 113.17 154.827C94.8523 154.884 90.3275 153.008 89.4956 151.007C88.6107 148.881 90.1505 146.851 92.9881 144.896C92.9692 145.308 93.0437 145.719 93.2064 146.101C93.9674 147.92 98.0734 149.62 114.692 149.569C130.237 149.518 152.596 137.387 158.772 134.919C205.938 116.052 224.374 114.483 221.241 105.78C219.884 101.983 214.162 99.0552 207.419 98.2537C217.873 97.0486 228.586 100.943 230.598 106.57C234.031 116.166 219.56 124.215 167.58 145.004Z" fill="black"/>
<path d="M114.934 137.569L116.774 136.796V139.411L114.934 140.178V137.569Z" fill="#455A64"/>
<path d="M118.297 136.165L120.267 135.341V137.956L118.297 138.774V136.165Z" fill="#455A64"/>
<path d="M121.785 134.71L123.756 133.886V136.501L121.785 137.319V134.71Z" fill="#455A64"/>
<path d="M125.273 133.255L127.238 132.431V135.046L125.273 135.864V133.255Z" fill="#455A64"/>
<path d="M128.762 131.799L130.732 130.975V133.59L128.762 134.408V131.799Z" fill="#455A64"/>
<path d="M132.254 130.344L134.218 129.52V132.134L132.254 132.959V130.344Z" fill="#455A64"/>
<path d="M135.742 128.889L137.713 128.064V130.679L135.742 131.504V128.889Z" fill="#455A64"/>
<path d="M139.227 127.434L141.197 126.609V129.224L139.227 130.049V127.434Z" fill="#455A64"/>
<path d="M142.719 125.979L144.683 125.154V127.769L142.719 128.593V125.979Z" fill="#455A64"/>
<path d="M146.207 124.523L148.177 123.698V126.313L146.207 127.132V124.523Z" fill="#455A64"/>
<path d="M149.699 123.067L151.664 122.243V124.858L149.699 125.677V123.067Z" fill="#455A64"/>
<path d="M153.188 121.612L155.158 120.788V123.403L153.188 124.222V121.612Z" fill="#455A64"/>
<path d="M156.672 120.157L158.642 119.339V121.948L156.672 122.767V120.157Z" fill="#455A64"/>
<path d="M160.164 118.702L162.129 117.884V120.493L160.164 121.312V118.702Z" fill="#455A64"/>
<path d="M163.652 117.246L165.623 116.428V119.037L163.652 119.856V117.246Z" fill="#455A64"/>
<path d="M167.137 115.791L169.107 114.973V117.582L167.137 118.406V115.791Z" fill="#455A64"/>
<path d="M170.633 114.336L172.603 113.518V116.127L170.633 116.951V114.336Z" fill="#455A64"/>
<path d="M174.117 112.881L176.088 112.062V114.672L174.117 115.496V112.881Z" fill="#455A64"/>
<path d="M177.609 111.425L179.574 110.606V113.216L177.609 114.04V111.425Z" fill="#455A64"/>
<path d="M181.094 109.97L183.064 109.151V111.761L181.094 112.585V109.97Z" fill="#455A64"/>
<path d="M184.582 108.516L186.552 107.697V110.307L184.582 111.131V108.516Z" fill="#455A64"/>
<path d="M190.045 106.241V108.85L188.074 109.675V107.06L190.045 106.241Z" fill="#455A64"/>
<path d="M193.529 104.786V107.395L191.559 108.22V105.605L193.529 104.786Z" fill="#455A64"/>
<path d="M197.019 103.331V105.94L195.055 106.765V104.15L197.019 103.331Z" fill="#455A64"/>
<path d="M200.509 101.876V104.485L198.539 105.309V102.695L200.509 101.876Z" fill="#455A64"/>
<path d="M209.625 100.807C210.708 100.013 211.955 99.4527 213.283 99.1641V100.869C212.115 100.858 210.911 100.83 209.625 100.807Z" fill="#455A64"/>
<path d="M217.57 98.7483V101.147C216.649 101.068 215.735 101.016 214.809 100.971V98.8734C215.723 98.7463 216.647 98.7044 217.57 98.7483Z" fill="#455A64"/>
<path d="M226.344 102.137C225.571 102.137 224.863 101.989 224.155 101.91C223.447 101.83 222.757 101.705 222.067 101.642C221.064 101.495 220.073 101.392 219.117 101.301V98.9023C220.318 99.0596 221.492 99.3673 222.61 99.8176C223.303 100.09 223.97 100.421 224.604 100.807C224.926 100.992 225.234 101.201 225.524 101.432C225.789 101.659 226.078 101.887 226.344 102.137Z" fill="#455A64"/>
<path d="M163.654 123.404L140.528 134.125C140.528 134.125 103.775 115.138 77.4042 101.268L77.3452 101.234C63.2692 93.8435 52.5205 88.068 52.6975 87.8463C53.1399 87.2778 60.2192 87.3404 63.0214 87.7099C63.2922 87.735 63.5604 87.7806 63.8238 87.8463C65.0036 88.1589 106.6 103.001 135.72 113.427L163.654 123.404Z" fill="#8CB369"/>
<g opacity="0.1">
<path d="M163.652 123.402L140.526 134.124C140.526 134.124 103.773 115.137 77.4023 101.267C79.4671 102.267 126.751 125.227 132.928 121.782C135.258 120.481 135.877 117.121 135.706 113.409L163.652 123.402Z" fill="black"/>
</g>
<path d="M167.024 121.953L160.157 125.137C142.589 118.042 69.5129 90.2048 63.407 87.8684L63.2182 87.7945L63.0648 87.749H63.0117C63.2825 87.7742 63.5507 87.8198 63.814 87.8855C65.6311 88.3516 167.024 121.953 167.024 121.953Z" fill="#8CB369"/>
<path opacity="0.5" d="M167.024 121.953L160.157 125.137C142.589 118.042 69.5129 90.2048 63.407 87.8684L63.2182 87.7945L63.0648 87.749H63.0117C63.2825 87.7742 63.5507 87.8198 63.814 87.8855C65.6311 88.3516 167.024 121.953 167.024 121.953Z" fill="white"/>
<path d="M117.499 122.471C115.239 123.528 112.779 124.358 112.602 122.17C112.531 121.271 113.251 120.311 116.891 118.628C117.741 118.23 119.841 117.349 120.431 119.197C121.021 121.044 118.354 122.073 117.499 122.471Z" fill="#8CB369"/>
<path opacity="0.1" d="M117.499 122.471C115.239 123.528 112.779 124.358 112.602 122.17C112.531 121.271 113.251 120.311 116.891 118.628C117.741 118.23 119.841 117.349 120.431 119.197C121.021 121.044 118.354 122.073 117.499 122.471Z" fill="black"/>
<path d="M97.9323 112.943C95.6729 114.001 93.2128 114.831 93.0358 112.642C92.965 111.744 93.6848 110.789 97.3247 109.101C98.1742 108.703 100.274 107.827 100.864 109.669C101.454 111.511 98.7878 112.545 97.9323 112.943Z" fill="#8CB369"/>
<path opacity="0.1" d="M97.9323 112.943C95.6729 114.001 93.2128 114.831 93.0358 112.642C92.965 111.744 93.6848 110.789 97.3247 109.101C98.1742 108.703 100.274 107.827 100.864 109.669C101.454 111.511 98.7878 112.545 97.9323 112.943Z" fill="black"/>
<path d="M78.3047 103.302C76.1986 104.291 73.9038 105.064 73.7386 103.023C73.6737 102.188 74.3285 101.318 77.7325 99.7263C78.5289 99.3568 80.4698 98.5382 81.0362 100.232C81.6025 101.926 79.0953 102.938 78.3047 103.302Z" fill="#8CB369"/>
<path opacity="0.1" d="M78.3047 103.302C76.1986 104.291 73.9038 105.064 73.7386 103.023C73.6737 102.188 74.3285 101.318 77.7325 99.7263C78.5289 99.3568 80.4698 98.5382 81.0362 100.232C81.6025 101.926 79.0953 102.938 78.3047 103.302Z" fill="black"/>
<path d="M146.694 120.31C144.924 123.363 140.877 124.46 138.323 125.426C131.532 128.041 126.612 129.513 124.164 123.567C123.873 122.881 123.69 122.157 123.621 121.419C123.22 116.939 128.04 114.699 130.482 113.46C133.432 111.965 135.52 110.993 137.078 110.362C139.615 109.333 140.747 109.225 141.909 109.163C143.284 109.117 146.381 109.452 147.402 114.932C147.843 116.749 147.591 118.657 146.694 120.31Z" fill="#8CB369"/>
<path d="M141.939 122.095C144.611 122.095 146.777 119.39 146.777 116.053C146.777 112.715 144.611 110.01 141.939 110.01C139.267 110.01 137.102 112.715 137.102 116.053C137.102 119.39 139.267 122.095 141.939 122.095Z" fill="#263238"/>
<path d="M146.212 116.053C146.212 119.003 144.301 121.391 141.941 121.391C139.581 121.391 137.664 119.003 137.664 116.053C137.664 113.102 139.581 110.715 141.941 110.715C144.301 110.715 146.212 113.102 146.212 116.053Z" fill="#455A64"/>
</svg>
