<svg width="277" height="268" viewBox="0 0 277 268" fill="none" xmlns="http://www.w3.org/2000/svg">
<path d="M201.648 201C238.652 163.997 238.652 104.003 201.648 67C164.645 29.9969 104.652 29.9969 67.6484 67C30.6454 104.003 30.6454 163.997 67.6484 201C104.652 238.003 164.645 238.003 201.648 201Z" fill="#878787"/>
<mask id="mask0_90_3165" style="mask-type:luminance" maskUnits="userSpaceOnUse" x="39" y="39" width="191" height="190">
<path d="M201.652 201C238.655 163.997 238.655 104.003 201.652 67C164.649 29.9969 104.655 29.9969 67.6523 67C30.6493 104.003 30.6493 163.997 67.6523 201C104.655 238.003 164.649 238.003 201.652 201Z" fill="white"/>
</mask>
<g mask="url(#mask0_90_3165)">
<path d="M131.243 90.1347L140.24 94.1824L142.714 98.23L146.762 99.8031L147.21 104.081L145.637 106.556L142.491 107.195L135.738 104.497V103.595L139.575 102.022L138.213 97.3476L132.144 95.0968L129.446 91.4967L131.243 90.1347ZM187.91 194.031L180.716 191.102L171.943 187.956H164.992L158.47 186.607L151.276 188.18L147.229 188.404H144.754L140.035 191.102L135.559 192.906L129.491 189.069L131.064 182.77L127.227 181.197H122.751L122.022 179.196L122.476 175.148L120.871 172.891L117.725 173.339L116.823 175.59L112.987 175.813L109.611 171.766L108.261 166.369L111.638 160.07L118.153 160.524L119.957 162.097H122.655L126.025 160.07L128.947 160.972L133.02 167.942L134.6 167.718L134.146 162.545L132.797 159.847L133.251 155.575L141.563 151.975L142.689 143.662L146.282 140.74L149.211 135.567L151.456 135.119L156.629 131.743L156.852 129.946L153.259 130.17L152.581 128.373H150.106L146.27 129.268L148.073 126.346L155.944 124.102L157.741 122.075L160.887 127.024L162.914 129.045L166.06 128.149L164.711 125.221L159.992 121.851L154.595 115.776L148.968 111.94L143.571 111.038L140.873 108.34L137.279 107.438L136.825 108.34L136.378 114.862L137.279 117.106L135.252 124.306L130.776 120.706L131.415 117.56L126.696 115.309L124.708 112.848L125.833 107.227L132.355 102.501L132.803 97.1046L130.328 97.3348L128.755 95.3078L128.116 91.9379L126.543 91.7077L125.641 95.3078L123.167 95.7554L122.041 87.8903L120.232 86.7649L117.086 85.4156L113.486 87.2125L117.962 91.4839L118.863 95.3206L110.768 89.2523L105.147 83.1776L104.693 77.1093L98.8487 75.3061L94.3727 78.2283C93.2804 78.8896 92.1534 79.4915 90.9964 80.0316C89.871 80.4792 85.5995 80.9268 85.5995 80.9268L84.6979 84.7634L79.5312 84.9872L79.9789 87.4619L88.2916 88.8111L92.563 93.5365V101.408L90.0884 108.378L90.5424 115.795L84.2439 126.819L82.8947 143.234L84.9217 152.678L87.844 159.872L91.2138 160.326L90.0884 156.726L88.2916 154.028L87.1662 149.078L89.1932 148.631L92.3392 156.726L94.5901 163.92V169.771L98.8615 174.937L106.535 180.564L118.198 183.672L121.798 187.042L124.497 190.642L128.544 193.117L133.494 194.466L138.443 194.242C138.443 194.242 138.213 196.493 138.213 197.612C138.213 198.731 135.067 202.561 135.067 202.561L132.592 207.037L134.389 211.987L139.338 214.014L146.308 221.207L149.46 222.556V225.926L149.851 227.499C167.345 224.674 183.69 216.98 197.016 205.298L197.131 203.667L203.205 192.65L200.283 190.623L187.91 194.031ZM211.301 105.2L208.826 100.928L205.68 95.9856L204.778 89.2395L208.826 89.9109L209.05 87.6601L206.128 87.4363L208.602 86.3109L211.301 84.7378V82.4934L208.602 78.8934L208.027 74.0528C194.956 58.0611 177.02 46.7757 156.947 41.913C136.874 37.0502 115.762 38.8762 96.8217 47.1132L102.008 50.7835L98.8615 54.8312L94.5901 55.7328L94.1361 61.8011L92.3392 62.4789L90.0884 64.9535L90.3186 69.0012L94.1553 69.4488L92.5822 73.2855H96.4189L102.941 64.9727L103.619 61.3727L109.911 60.9187L111.484 58.2202L118.006 57.5488L118.684 53.7122L123.403 53.4884C123.403 53.4884 126.78 51.6916 127.451 51.6916C128.122 51.6916 131.288 52.8106 131.288 52.8106L134.664 55.509H139.383L143.431 53.0408L148.604 53.4884C149.344 53.9833 150.193 54.2926 151.078 54.39C152.204 54.39 155.554 52.8106 155.554 52.8106L162.077 56.8582L164.775 58.8853V62.2551L168.151 62.7091L169.27 60.6821L172.199 62.0313L171.969 63.8345L165.223 65.6313L169.059 70.5806L177.155 75.0567L180.531 79.5328L185.48 79.9868L186.599 77.736L188.402 77.2884L182.552 72.8123L178.958 72.3647L181.88 71.4631L179.182 67.6264L183.018 67.3962L187.961 70.0947L189.087 75.4915L191.561 78.4202L193.588 84.9361L198.531 88.5361V95.96L203.704 99.3299L203.48 101.805L202.803 104.727L204.152 108.774L204.606 110.801L208.442 111.441L210.239 107.604L211.301 105.2ZM214.229 82.551V83.8298L213.104 87.4235L213.782 90.5759L216.25 91.4711V95.7426L213.552 94.6236L212.88 106.773L210.182 111.716L211.979 118.014L214.901 120.713V132.862L217.829 142.307L220.976 149.507L226.149 150.85L227.945 146.374L228.681 145.798C229.167 141.891 229.41 137.957 229.41 134.02C229.44 115.755 224.167 97.8752 214.229 82.551ZM162.281 81.1442L147.44 74.6219L140.918 74.8457L139.345 79.1172L136.646 76.1949L131.697 77.3203L131.249 84.7378L135.297 87.6601L138.219 83.3886L141.595 86.7649L148.565 92.8332L149.914 99.3555L155.759 106.779L165.203 105.2L164.992 101.824L162.972 97.987L162.499 89.0349L164.749 85.1982L162.281 81.1442ZM174.431 86.0871L171.061 85.1918L168.139 87.6601L169.712 94.1824H172.634L174.431 86.0871ZM195.347 90.3585L187.673 86.3109L186.094 83.6124L184.297 84.2902L185.87 88.7663L187.219 94.6172L190.589 95.9664L191.267 95.0648L189.291 91.7077L195.142 93.9586L195.347 90.3585ZM129.67 171.523L128.768 172.424L135.514 174.445L138.213 177.591L142.491 178.045L144.064 175.57L138.891 174.72L129.67 171.523ZM149.684 175.794L144.959 177.143L145.637 178.94H151.481L152.607 177.143L150.586 177.367L149.684 175.794Z" fill="#8CB369"/>
<path opacity="0.3" d="M157.613 173.755C132.376 173.755 108.172 163.729 90.3257 145.885C72.4797 128.04 62.453 103.837 62.4513 78.5993C62.4513 76.1631 62.5472 73.746 62.7263 71.3545C52.816 82.7065 45.7436 96.25 42.0912 110.87C38.4388 125.49 38.3108 140.768 41.7179 155.447C45.125 170.126 51.9697 183.786 61.6885 195.303C71.4072 206.819 83.7222 215.863 97.6196 221.689C111.517 227.515 126.599 229.957 141.625 228.814C156.651 227.671 171.191 222.976 184.047 215.115C196.904 207.254 207.709 196.452 215.575 183.599C223.44 170.745 228.14 156.207 229.288 141.181C220.367 151.423 209.352 159.63 196.987 165.25C184.622 170.869 171.195 173.769 157.613 173.755Z" fill="black"/>
</g>
<path d="M201.648 201C238.652 163.997 238.652 104.003 201.648 67C164.645 29.9969 104.652 29.9969 67.6484 67C30.6454 104.003 30.6454 163.997 67.6484 201C104.652 238.003 164.645 238.003 201.648 201Z" stroke="#263238" stroke-linecap="round" stroke-linejoin="round"/>
<path d="M225.737 107.803C226.198 109.41 226.624 111.032 227.016 112.669C245.426 122.018 255.919 131.788 254.308 139.947C252.133 150.971 228.397 156.33 194.539 155.294V165.525C240.534 168.198 273.408 162.053 276.17 148.062C278.491 136.136 258.534 121.225 225.737 107.803Z" fill="white" stroke="#263238" stroke-miterlimit="10"/>
<path d="M121.131 135.075L86.7871 109.74L88.1235 107.783L84.4659 110.239L84.3828 113.078L85.5722 111.882L102.914 125.31C103.077 125.762 103.339 126.172 103.679 126.512C104.02 126.851 104.431 127.111 104.883 127.273C105.591 127.472 106.285 127.716 106.961 128.002L117.832 137.281L121.131 135.075Z" fill="white" stroke="#263238" stroke-linecap="round" stroke-linejoin="round"/>
<path d="M191.988 149.846L182.78 142.633L181.066 142.46L189.36 150.28L191.988 149.846Z" fill="white" stroke="#263238" stroke-linecap="round" stroke-linejoin="round"/>
<path d="M200.568 151.381L130.377 134.046C130.377 134.046 123.343 131.865 117.588 135.484C111.833 139.104 110.273 139.596 107.626 144.149C106.328 146.418 105.969 149.106 106.626 151.637C107.283 154.167 108.904 156.341 111.143 157.692C116.162 160.742 149.931 166.932 149.931 166.932C149.931 166.932 158.244 171.408 161.882 172.303C165.521 173.199 172.753 174.132 174.249 173.947C175.261 173.801 176.26 173.575 177.235 173.269L185.299 175.015L182.312 176.492C182.312 176.492 175.279 174.311 172.586 179.964C169.894 185.616 174.441 189.057 178.808 190.233C181.696 191.087 184.784 190.973 187.601 189.907C188.969 189.383 190.619 189.869 191.834 187.727C193.049 185.584 193.599 184.427 192.985 183.513L191.757 181.684C192.5 181.607 193.229 181.431 193.925 181.16C195.045 180.523 196.097 179.773 197.064 178.922L208.92 183.033C208.92 183.033 212.289 186.077 214.457 186.345C216.625 186.614 217.226 185.796 217.226 185.796L233.947 192.088C233.947 192.088 235.507 193.827 236.882 194.095C237.785 194.252 238.71 194.219 239.6 194L270.606 204.87L270.888 206.667L273.075 202.83L270.421 203.419L191.898 173.653C191.898 173.653 206.445 169.854 214.035 165.167L247.152 175.82L246.749 174.631L216.375 162.929C216.375 162.929 217.558 160.154 216.701 158.869C215.934 157.858 215.053 156.939 214.073 156.132L232.131 123.181L228.16 122.401L204.034 150.639C204.034 150.639 203.312 151.131 200.568 151.381Z" fill="white"/>
<mask id="mask1_90_3165" style="mask-type:luminance" maskUnits="userSpaceOnUse" x="106" y="122" width="168" height="85">
<path d="M200.568 151.379L130.377 134.044C130.377 134.044 123.343 131.863 117.588 135.482C111.833 139.102 110.273 139.594 107.626 144.147C106.328 146.417 105.969 149.104 106.626 151.635C107.283 154.165 108.904 156.339 111.143 157.69C116.162 160.74 149.931 166.93 149.931 166.93C149.931 166.93 158.244 171.406 161.882 172.301C165.521 173.197 172.753 174.13 174.249 173.945C175.261 173.799 176.26 173.573 177.235 173.267L185.299 175.013L182.312 176.49C182.312 176.49 175.279 174.309 172.586 179.962C169.894 185.615 174.441 189.055 178.808 190.231C181.696 191.085 184.784 190.971 187.601 189.905C188.969 189.381 190.619 189.867 191.834 187.725C193.049 185.583 193.599 184.425 192.985 183.511L191.757 181.682C192.5 181.605 193.229 181.429 193.925 181.158C195.045 180.521 196.097 179.771 197.064 178.92L208.92 183.031C208.92 183.031 212.289 186.075 214.457 186.343C216.625 186.612 217.226 185.794 217.226 185.794L233.947 192.086C233.947 192.086 235.507 193.825 236.882 194.093C237.785 194.25 238.71 194.217 239.6 193.998L270.606 204.868L270.888 206.665L273.075 202.828L270.421 203.417L191.898 173.651C191.898 173.651 206.445 169.852 214.035 165.165L247.152 175.818L246.749 174.629L216.375 162.927C216.375 162.927 217.558 160.152 216.701 158.867C215.934 157.856 215.053 156.937 214.073 156.13L232.131 123.18L228.16 122.399L204.034 150.637C204.034 150.637 203.312 151.129 200.568 151.379Z" fill="white"/>
</mask>
<g mask="url(#mask1_90_3165)">
<path opacity="0.2" d="M197.04 178.92L208.921 183.032C208.921 183.032 212.29 186.075 214.458 186.344C216.626 186.613 217.227 185.794 217.227 185.794L233.948 192.086C233.948 192.086 235.508 193.825 236.883 194.094C237.786 194.25 238.711 194.218 239.601 193.998L270.607 204.869L270.889 206.665L273.076 202.829L270.422 203.417L191.899 173.651C191.899 173.651 206.446 169.853 214.036 165.166L247.153 175.819L246.75 174.629L216.376 162.928C216.376 162.928 217.559 160.153 216.703 158.867C215.936 157.856 215.054 156.938 214.074 156.13L232.132 123.18L229.491 122.662C228.059 124.58 210.948 147.671 208.313 151.507C205.538 155.517 199.361 155.21 199.361 155.21C199.361 155.21 151.269 144.416 144.177 143.495C137.086 142.574 128.453 141.027 122.596 147.498C116.739 153.969 117.046 159.526 117.046 159.526L117.596 159.973C128.952 163.094 149.881 166.931 149.881 166.931C149.881 166.931 158.194 171.407 161.832 172.302C165.471 173.197 172.703 174.131 174.199 173.945C175.211 173.8 176.21 173.573 177.185 173.267L185.248 175.013L182.262 176.49C182.262 176.49 175.228 174.31 172.536 179.962C169.844 185.615 174.391 189.055 178.758 190.232C181.646 191.086 184.734 190.971 187.55 189.906C188.919 189.381 190.569 189.867 191.784 187.725C192.998 185.583 193.548 184.426 192.935 183.511L191.707 181.682C192.45 181.606 193.179 181.429 193.875 181.158C195.004 180.523 196.065 179.773 197.04 178.92Z" fill="black" stroke="#263238" stroke-width="0.75" stroke-linecap="round" stroke-linejoin="round"/>
</g>
<path d="M200.568 151.381L130.377 134.046C130.377 134.046 123.343 131.865 117.588 135.484C111.833 139.104 110.273 139.596 107.626 144.149C106.328 146.418 105.969 149.106 106.626 151.637C107.283 154.167 108.904 156.341 111.143 157.692C116.162 160.742 149.931 166.932 149.931 166.932C149.931 166.932 158.244 171.408 161.882 172.303C165.521 173.199 172.753 174.132 174.249 173.947C175.261 173.801 176.26 173.575 177.235 173.269L185.299 175.015L182.312 176.492C182.312 176.492 175.279 174.311 172.586 179.964C169.894 185.616 174.441 189.057 178.808 190.233C181.696 191.087 184.784 190.973 187.601 189.907C188.969 189.383 190.619 189.869 191.834 187.727C193.049 185.585 193.599 184.427 192.985 183.513L191.757 181.684C192.5 181.607 193.229 181.431 193.925 181.16C195.045 180.523 196.097 179.773 197.064 178.922L208.92 183.033C208.92 183.033 212.289 186.077 214.457 186.345C216.625 186.614 217.226 185.796 217.226 185.796L233.947 192.088C233.947 192.088 235.507 193.827 236.882 194.095C237.785 194.252 238.71 194.219 239.6 194L270.606 204.87L270.888 206.667L273.075 202.83L270.421 203.419L191.898 173.653C191.898 173.653 206.445 169.854 214.035 165.167L247.152 175.82L246.749 174.631L216.375 162.929C216.375 162.929 217.558 160.154 216.701 158.869C215.934 157.858 215.053 156.939 214.073 156.132L232.131 123.181L228.16 122.401L204.034 150.639C204.034 150.639 203.312 151.131 200.568 151.381Z" stroke="#263238" stroke-linecap="round" stroke-linejoin="round"/>
<path d="M124.696 142.428L119.433 140.196L116.914 142.869L117.195 143.067L123.149 145.555L124.696 142.428Z" fill="#263238"/>
<path d="M115.291 137.582L114.805 137.179C113.667 137.882 112.746 138.458 111.953 139.039L112.497 139.641L115.291 137.582Z" fill="#263238"/>
<path d="M118.758 139.908L115.862 138.016L112.965 140.151L113.029 140.215L116.335 142.479L118.758 139.908Z" fill="#263238"/>
<path d="M127.501 143.432L125.346 142.665L123.773 145.843L127.073 147.793L127.859 147.998L127.501 143.432Z" fill="#263238"/>
<path d="M130.463 145.759C130.213 143.982 129.926 144.302 129.926 144.302L128.199 143.662L128.551 148.138L130.341 148.611C130.578 147.679 130.619 146.708 130.463 145.759Z" fill="#263238"/>
<path d="M182.76 183.589C183.346 180.616 181.575 177.763 178.803 177.216C176.031 176.669 173.309 178.636 172.722 181.609C172.136 184.581 173.907 187.434 176.679 187.981C179.451 188.528 182.173 186.562 182.76 183.589Z" fill="#263238" stroke="#263238" stroke-linecap="round" stroke-linejoin="round"/>
<path d="M214.036 165.128L210.839 164.15C210.822 163.821 210.885 163.492 211.023 163.192C211.161 162.893 211.37 162.631 211.631 162.43C212.482 161.918 216.383 162.89 216.383 162.89" fill="white"/>
<path d="M214.036 165.128L210.839 164.15C210.822 163.821 210.885 163.492 211.023 163.192C211.161 162.893 211.37 162.631 211.631 162.43C212.482 161.918 216.383 162.89 216.383 162.89" stroke="#263238" stroke-linecap="round" stroke-linejoin="round"/>
<path d="M176.71 173.441C173.352 172.498 170.047 171.373 166.811 170.071C164.375 169.06 165.533 166.663 165.533 166.663L156.216 164.105C156.216 164.105 140.294 161.291 124.391 157.455C113.789 154.897 108.603 151.77 106.32 149.967C106.455 151.539 106.96 153.057 107.794 154.398C108.627 155.738 109.766 156.862 111.116 157.678C116.136 160.729 149.905 166.918 149.905 166.918C149.905 166.918 158.217 171.394 161.856 172.29C165.494 173.185 172.726 174.118 174.223 173.933C175.062 173.827 175.893 173.663 176.71 173.441Z" fill="#263238" stroke="#263238" stroke-width="0.75" stroke-linecap="round" stroke-linejoin="round"/>
<path d="M197.698 171.925L180.273 168.491L181.661 169.463L192.014 173.594C192.525 173.44 194.738 172.859 197.698 171.925Z" fill="#263238" stroke="#263238" stroke-width="0.75" stroke-linecap="round" stroke-linejoin="round"/>
<path d="M206.045 154.757L202.727 154.194" stroke="#263238" stroke-miterlimit="10"/>
<path d="M214.075 156.105L208.352 155.14" stroke="#263238" stroke-miterlimit="10"/>
</svg>
