<svg width="290" height="299" viewBox="0 0 290 299" fill="none" xmlns="http://www.w3.org/2000/svg">
<path d="M220.996 224.25C259.104 182.967 259.104 116.033 220.996 74.75C182.888 33.4667 121.104 33.4667 82.9961 74.75C44.8885 116.033 44.8885 182.967 82.9961 224.25C121.104 265.533 182.888 265.533 220.996 224.25Z" fill="#8CB369"/>
<path opacity="0.7" d="M220.996 224.25C259.104 182.967 259.104 116.033 220.996 74.75C182.888 33.4667 121.104 33.4667 82.9961 74.75C44.8885 116.033 44.8885 182.967 82.9961 224.25C121.104 265.533 182.888 265.533 220.996 224.25Z" fill="white"/>
<g opacity="0.2">
<path d="M247.315 172.222L245.797 168.584L240.231 167.926L235.768 164.904L231.105 162.182L227.231 156.256L221.864 151.296L219.19 159.601L222.019 164.393L226.778 167.254L229.181 172.642L233.159 175.958L237.421 177.938L235.968 183.493L234.476 189.495L233.398 196.142L227.463 195.736L223.059 199.465L218.189 201.368L213.249 199.724L208.987 195.596L203.756 191.706L198.001 188.404L194.772 182.513L192.674 177.574L190.019 172.39L189.923 166.513L189.787 160.643L187.41 155.564L185.576 164.064L183.71 169.22L183.82 174.901L181.824 180.204L179.37 186.501L178.079 192.798L181.488 195.071L186.939 195.519L182.69 201.158L178.815 206.377L174.701 211.421L169.535 215.717L163.619 218.411L157.91 221.531L151.31 222.804L146.576 228.023L139.97 229.22L134.035 232.494L127.919 235.083L121.351 235.153L116.766 232.655L110.243 232.564L113.078 227.093L114.628 222.252L116.566 215.353L117.586 208.007L118.878 200.934L120.673 195.043L122.772 189.027L120.835 182.492L123.624 176.238L120.46 170.899L116.94 166.296L112.42 162.518L109.591 157.369L107.441 152.129L105.865 146.574L105.064 140.557L103.172 134.169L108.28 128.943L111.328 122.584L116.682 118.946L121.81 119.484L127.622 120.226L133.357 121.457L139.627 120.352L144.497 125.872L150.78 128.041L156.38 131.581L161.94 135.212L167.565 138.829L171.543 144.888L177.614 147.861L183.284 147.161L188.792 147.714L194.217 148.987L200.727 151.233L198.673 142.6L196.632 135.366L192.499 133.127L189.115 128.139L184.246 126.159L179.725 123.934L179.151 118.624L177.646 113.349L176.47 107.752L170.245 104.562L163.606 103.001L157.665 101.77L153.325 105.268L147.629 105.702L141.358 106.737L134.254 100.063L138.555 95.5715L138.407 89.4358L141.307 84.7833L148.133 81.4601L152.847 75.7513L158.362 77.0176L163.574 80.5856H169.89L175.876 78.025L182.128 78.9835L187.062 75.9821L190.504 71.4626L194.282 67.4188L200.036 66.5303L205.461 69.4267H211.157L216.459 70.5881L218.028 71.6375C230.602 84.1651 239.923 100.046 245.062 117.695C250.201 135.345 250.978 154.146 247.315 172.222Z" fill="#8CB369"/>
<path d="M159.3 228.143L156.446 232.564L150.195 234.033L145.293 235.95L152.3 238.455H158.351L163.382 234.334L164.06 231.088L159.3 228.143Z" fill="#8CB369"/>
<path d="M86.1959 227.387L86.0796 227.449C73.9889 215.439 64.8832 200.325 59.6018 183.499L59.1174 180.75L58.3101 179.043C53.4313 161.008 53.1057 141.886 57.3673 123.668L58.5491 128.313L59.9699 134.834L63.567 140.935L63.3409 148.064L66.4085 154.297L67.0543 161.098L67.4547 166.695L66.712 172.236L63.7349 177.406L65.6077 184.115L68.6494 189.901L70.5223 194.91L71.3037 201.808L74.5327 206.622L75.8243 212.527L79.4666 217.123L81.9853 222.349L86.1959 227.387Z" fill="#8CB369"/>
<path d="M166.135 48.6689L162.312 50.383L157.429 53.4193L152.463 56.2738L147.407 58.8274L141.801 59.8278L136.538 61.6678L131.255 59.7649L125.779 58.5265L120.515 56.3577L115.129 56.9664L109.569 59.6179L105.048 64.2564L101.548 70.1402L95.258 72.6239L91.945 78.6126L88.3544 83.5449L87.4503 90.0654L83.175 94.7668L81.3603 100.756L77.5953 105.73L76.097 111.327L71.2342 110.557L65.8869 109.459L62.2188 108.116C70.5688 86.8551 85.1165 69.1423 103.638 57.6856C122.159 46.2288 143.633 41.6587 164.779 44.6741L166.135 48.6689Z" fill="#8CB369"/>
</g>
<path d="M250.712 114.564C235.898 128.242 202.678 122.911 194.592 120.028C186.507 117.146 199.423 118.706 205.92 117.23C212.416 115.754 214.838 109.632 224.609 114.431C234.38 119.231 234.348 120.63 238.5 115.355C242.653 110.08 259.108 106.82 250.712 114.564Z" fill="white"/>
<path d="M55.7761 182.82C65.1209 209.783 108.086 227.238 119.478 229.589C130.87 231.94 114.518 224.552 107.64 218.157C100.763 211.763 101.635 202.675 87.0329 201.366C72.4313 200.058 71.6112 201.786 69.874 192.509C68.1367 183.232 50.4805 167.547 55.7761 182.82Z" fill="white"/>
<path d="M123.8 113.572C97.6963 107.814 72.82 90.764 70.5144 81.4871C69.1518 76.0161 72.9104 81.564 77.1533 83.2781C81.3962 84.9922 90.4956 78.9125 93.0788 86.2095C95.662 93.5065 93.4533 97.4874 100.648 100.118C107.842 102.749 112.485 99.2014 116.599 105.428C120.713 111.655 130.929 115.146 123.8 113.572Z" fill="white"/>
<path d="M188.738 207.572C153.18 205.228 117.3 187.689 112.643 175.872C109.899 168.876 115.834 175.494 121.749 176.901C127.665 178.307 138.663 168.421 143.345 177.558C148.027 186.695 145.779 192.418 155.757 194.447C165.735 196.476 171.256 190.83 177.805 198.246C184.353 205.662 198.451 208.208 188.738 207.572Z" fill="white"/>
<path d="M210.972 237.718C195.472 249.325 165.359 248.506 159.617 243.259C156.233 240.167 164.015 240.146 167.826 239.698C171.636 239.25 176.395 230.918 180.909 235.374C185.424 239.831 182.698 242.371 188.872 240.468C195.046 238.565 196.699 233.639 202.337 235.822C207.975 238.005 216.035 233.926 210.972 237.718Z" fill="white"/>
<path d="M191.493 84.5858C210.221 89.9449 230.409 85.1735 233.858 78.1493C235.892 74.0076 232.237 77.2678 229.034 77.0649C225.831 76.862 220.968 68.0748 217.732 73.294C214.497 78.5131 215.149 82.7948 209.802 82.2071C204.454 81.6194 202.052 76.7571 197.996 80.4651C193.941 84.173 186.378 83.1236 191.493 84.5858Z" fill="white"/>
<path d="M100.164 164.952L97.0508 162.069L102.934 153.975L106.053 156.857L100.164 164.952Z" fill="#7F3E3B"/>
<path d="M98.2098 160.705L101.665 163.79C101.727 163.844 101.769 163.92 101.784 164.005C101.798 164.09 101.783 164.177 101.742 164.252L99.9083 167.75C99.8605 167.834 99.7968 167.906 99.7215 167.961C99.6462 168.016 99.5609 168.054 99.4712 168.071C99.3816 168.088 99.2896 168.085 99.2013 168.061C99.113 168.037 99.0305 167.993 98.959 167.932C97.7384 166.791 96.0012 165.133 94.4383 163.734C92.6107 162.097 92.7334 162.335 90.5635 160.425C89.2719 159.263 90.0533 157.577 90.6991 157.941C93.644 159.585 93.9282 159.781 97.2088 160.32C97.5691 160.344 97.9158 160.478 98.2098 160.705Z" fill="#263238"/>
<path opacity="0.2" d="M102.931 153.981L99.9023 158.151L103.015 161.034L106.05 156.857L102.931 153.981Z" fill="black"/>
<path d="M100.906 152.841L99.543 155.59L105.09 160.663L107.002 158.62L100.906 152.841Z" fill="#263238"/>
<path d="M103.073 211.378L83.9574 208.236C82.3112 207.964 80.7383 207.311 79.3452 206.323C77.9521 205.334 76.7713 204.033 75.8828 202.507C74.9943 200.981 74.4187 199.267 74.1951 197.479C73.9715 195.691 74.1051 193.872 74.5868 192.145C75.0756 190.419 75.9014 188.827 77.0081 187.476C78.1149 186.126 79.4767 185.05 81.0012 184.32C82.5258 183.59 84.1774 183.224 85.844 183.246C87.5107 183.268 89.1534 183.679 90.6608 184.449L108.143 193.398C109.187 193.933 110.019 194.857 110.486 196.001C110.953 197.146 111.024 198.434 110.687 199.631L108.395 207.775C108.052 208.966 107.327 209.984 106.351 210.645C105.374 211.307 104.211 211.566 103.073 211.378Z" fill="#8CB369"/>
<path opacity="0.4" d="M103.073 211.378L83.9574 208.236C82.3112 207.964 80.7383 207.311 79.3452 206.323C77.9521 205.334 76.7713 204.033 75.8828 202.507C74.9943 200.981 74.4187 199.267 74.1951 197.479C73.9715 195.691 74.1051 193.872 74.5868 192.145C75.0756 190.419 75.9014 188.827 77.0081 187.476C78.1149 186.126 79.4767 185.05 81.0012 184.32C82.5258 183.59 84.1774 183.224 85.844 183.246C87.5107 183.268 89.1534 183.679 90.6608 184.449L108.143 193.398C109.187 193.933 110.019 194.857 110.486 196.001C110.953 197.146 111.024 198.434 110.687 199.631L108.395 207.775C108.052 208.966 107.327 209.984 106.351 210.645C105.374 211.307 104.211 211.566 103.073 211.378Z" fill="black"/>
<path d="M97.0835 155.723C100.622 156.555 105.789 157.122 106.77 155.205C112.512 143.892 120.978 125.821 122.825 121.777C123.109 121.176 122.761 120.63 121.844 120.203L109.308 114.347C106.687 113.305 103.496 114.221 101.094 115.222C86.3502 121.406 59.078 134.112 52.8008 139.219C59.4655 145.823 85.0457 152.882 97.0835 155.723Z" fill="#8CB369"/>
<path opacity="0.2" d="M97.0835 155.723C100.622 156.555 105.789 157.122 106.77 155.205C112.512 143.892 120.978 125.821 122.825 121.777C123.109 121.176 122.761 120.63 121.844 120.203L109.308 114.347C106.687 113.305 103.496 114.221 101.094 115.222C86.3502 121.406 59.078 134.112 52.8008 139.219C59.4655 145.823 85.0457 152.882 97.0835 155.723Z" fill="black"/>
<path d="M204.891 173.375C206.273 173.41 207.778 173.025 206.551 171.626C199.195 163.273 187.287 150.022 184.639 147.083C184.257 146.649 183.772 146.337 183.238 146.181L176.134 144.124C174.784 143.809 174.803 144.887 175.055 145.901C176.612 152.156 180.454 164.567 182.999 168.884C189.431 172.291 200.203 173.249 204.891 173.375Z" fill="#8CB369"/>
<path opacity="0.2" d="M204.891 173.375C206.273 173.41 207.778 173.025 206.551 171.626C199.195 163.273 187.287 150.022 184.639 147.083C184.257 146.649 183.772 146.337 183.238 146.181L176.134 144.124C174.784 143.809 174.803 144.887 175.055 145.901C176.612 152.156 180.454 164.567 182.999 168.884C189.431 172.291 200.203 173.249 204.891 173.375Z" fill="black"/>
<path d="M86.9108 118.496C84.9152 118.02 82.9391 117.58 81.0469 117.188L81.1696 116.488C83.0682 116.88 85.0444 117.321 87.0464 117.797L86.9108 118.496Z" fill="#8CB369"/>
<path d="M76.3376 116.265C69.383 114.911 62.3371 114.181 55.2716 114.082C52.4314 114.069 49.5932 114.244 46.7728 114.607L46.6953 113.907C49.542 113.548 52.4057 113.373 55.2716 113.382C62.3736 113.483 69.456 114.215 76.4474 115.572L76.3376 116.265Z" fill="#8CB369"/>
<path d="M32.2699 121.421C62.7776 101.132 145.285 141.955 189.704 152.61C210.331 157.564 197.705 175.74 187.818 178.118C177.931 180.497 56.8104 189.312 16.9838 169.723C-22.8428 150.134 17.9848 130.936 32.2699 121.421Z" fill="#8CB369"/>
<path d="M185.274 178.552C190.512 178.133 195.523 176.066 199.692 172.604C203.861 169.143 207.007 164.438 208.742 159.067C212.113 148.874 214.503 141.577 214.503 141.577C211.865 139.938 208.897 139.023 205.858 138.911C202.819 138.799 199.801 139.493 197.066 140.933L174.211 152.981L185.274 178.552Z" fill="#8CB369"/>
<path opacity="0.2" d="M184.168 164.244C185.699 168.379 190.116 173.29 193.377 176.529C196.84 175.018 199.967 172.729 202.554 169.813L184.168 164.244Z" fill="black"/>
<path opacity="0.2" d="M197.259 167.512C193.161 167.927 189.045 168.084 184.93 167.981C180.81 167.904 176.69 167.54 172.583 167.085C168.475 166.631 164.387 165.924 160.312 165.168C144.006 161.999 128.061 156.878 112.336 151.029C108.403 149.574 104.476 148.07 100.518 146.552C98.522 145.81 96.5717 145.047 94.4535 144.348C93.3492 144.04 92.2578 143.648 91.1276 143.424L89.4291 143.088C88.866 142.965 88.2967 142.876 87.7242 142.823C83.1063 142.256 78.4311 142.635 73.9428 143.942C71.7284 144.621 69.5686 145.493 67.4848 146.552C65.4125 147.611 63.4196 148.844 61.524 150.238L60.1097 151.316L58.7471 152.449L57.4555 153.604C57.0809 153.946 56.6999 154.303 56.3059 154.625C54.7689 155.968 53.1544 157.263 51.5141 158.515C48.2152 161.009 44.7939 163.307 41.2652 165.399C37.8152 167.479 34.2174 169.257 30.5061 170.716C28.7799 171.399 27.0043 171.926 25.1976 172.29C24.6939 172.388 24.1966 172.465 23.7188 172.507C29.1198 174.338 34.6279 175.776 40.2061 176.81C42.0337 175.803 43.8097 174.711 45.5598 173.606C49.2914 171.212 52.8963 168.594 56.3576 165.763C58.0948 164.364 59.7933 162.874 61.4594 161.32C61.8727 160.936 62.2861 160.53 62.6929 160.138L63.7908 159.082L64.8757 158.109L66.0059 157.179C67.5306 155.975 69.1367 154.897 70.8107 153.953C72.4714 153.03 74.1993 152.255 75.9771 151.638C79.547 150.451 83.2909 150.003 87.0138 150.315C87.4818 150.337 87.9478 150.393 88.4088 150.483L89.8037 150.693C90.7337 150.861 91.6507 151.148 92.5742 151.393C94.4729 151.939 96.449 152.624 98.451 153.282C102.429 154.632 106.433 156.003 110.45 157.326C126.518 162.615 142.889 167.204 159.615 169.793C163.8 170.409 168.01 170.94 172.208 171.283C176.406 171.626 180.655 171.794 184.898 171.71C189.147 171.653 193.389 171.321 197.601 170.716C199.263 170.469 200.914 170.173 202.554 169.828C203.566 168.714 204.491 167.512 205.318 166.232C202.658 166.791 199.965 167.218 197.259 167.512Z" fill="white"/>
<path opacity="0.2" d="M124.909 178.552C124.909 178.552 94.6204 178.377 65.837 175.404C65.1912 175.334 63.3377 171.786 61.368 170.905C61.1549 173.368 61.5553 174.935 60.4123 174.802C43.7635 172.85 23.6015 168.379 15.7357 163.86C11.7317 148.342 2.90357 143.676 2.90357 143.676C-2.61158 151.658 -1.47497 160.656 16.9821 169.716C56.8087 189.305 177.929 180.49 187.816 178.111L124.909 178.552Z" fill="black"/>
<path d="M65.8436 165.356C64.9178 165.361 64.0157 165.673 63.2592 166.251C62.5026 166.829 61.9281 167.645 61.6132 168.588C61.2984 169.531 61.2584 170.556 61.4987 171.525C61.739 172.493 62.248 173.359 62.9569 174.004C82.8669 191.368 120.065 219.045 129.281 225.867C130.683 226.897 132.262 227.611 133.924 227.965L156.527 232.716C159.233 233.282 160.305 231.638 159.168 229.288C152.142 214.771 135.958 185.289 126.562 175.284C105.573 167.378 80.4 165.636 65.8436 165.356Z" fill="#8CB369"/>
<path opacity="0.2" d="M126.432 220.04L65.5783 168.806C63.5892 167.134 60.6896 169.24 61.5098 171.815C61.7905 172.679 62.2922 173.438 62.9564 174.005C82.8664 191.369 120.065 219.046 129.28 225.867C130.682 226.898 132.261 227.612 133.924 227.966L156.527 232.717C157.883 233.003 158.826 232.717 159.291 232.094L138.98 226.658C134.417 225.424 130.143 223.169 126.432 220.04Z" fill="black"/>
<path d="M182.378 160.537C182.055 160.585 181.754 160.74 181.516 160.981C181.278 161.223 181.115 161.539 181.051 161.885C180.986 162.231 181.023 162.591 181.155 162.913C181.288 163.236 181.51 163.506 181.79 163.686C189.501 168.583 203.677 176.097 207.19 177.944C207.723 178.221 208.303 178.378 208.895 178.405L216.941 178.79C217.904 178.839 218.201 178.21 217.691 177.461C214.578 172.83 207.584 163.532 203.864 160.593C196.218 159.026 187.428 159.824 182.378 160.537Z" fill="#8CB369"/>
<path opacity="0.2" d="M205.929 176.082L182.448 161.74C182.281 161.64 182.089 161.599 181.9 161.624C181.711 161.649 181.534 161.738 181.395 161.879C181.255 162.019 181.16 162.204 181.123 162.406C181.086 162.609 181.109 162.819 181.188 163.006C181.319 163.299 181.529 163.543 181.789 163.706C189.5 168.603 203.675 176.117 207.188 177.964C207.722 178.241 208.302 178.399 208.893 178.426L216.94 178.81C217.111 178.847 217.288 178.833 217.452 178.769C217.616 178.705 217.76 178.593 217.87 178.447L210.579 177.67C208.943 177.499 207.359 176.958 205.929 176.082Z" fill="black"/>
<path d="M33.817 120.477C33.2874 120.77 32.7708 121.085 32.2671 121.421C30.3297 122.694 27.9789 124.136 25.3828 125.731C26.5905 129.495 30.4007 133.888 35.2378 137.834L44.1821 130.404C39.7002 127.34 35.89 123.793 33.817 120.477Z" fill="white"/>
<path d="M47.3741 132.419L39.3984 140.891C41.4307 142.276 43.5376 143.529 45.7079 144.641C46.3762 144.978 47.1011 145.162 47.8379 145.184C48.5746 145.205 49.3075 145.062 49.9914 144.765C50.6753 144.467 51.2956 144.021 51.814 143.453C52.3324 142.886 52.7379 142.209 53.0055 141.465C53.4971 140.093 53.4929 138.571 52.9936 137.203C52.4944 135.835 51.5369 134.721 50.3125 134.084C49.3373 133.559 48.3493 133 47.3741 132.419Z" fill="white"/>
<path d="M221.302 158.123C236.497 161.621 275.685 168.617 255.646 142.577C278.83 168.19 254.192 172.059 233.042 173.36C231.074 173.484 229.105 173.123 227.283 172.306C225.461 171.488 223.833 170.234 222.522 168.638C220.976 166.758 219.578 164.741 218.344 162.607C218.064 162.105 217.926 161.526 217.947 160.94C217.968 160.354 218.147 159.788 218.462 159.311C218.776 158.834 219.213 158.468 219.717 158.256C220.222 158.045 220.773 157.999 221.302 158.123Z" fill="#8CB369"/>
<path opacity="0.2" d="M221.302 158.123C236.497 161.621 275.685 168.617 255.646 142.577C278.83 168.19 254.192 172.059 233.042 173.36C231.074 173.484 229.105 173.123 227.283 172.306C225.461 171.488 223.833 170.234 222.522 168.638C220.976 166.758 219.578 164.741 218.344 162.607C218.064 162.105 217.926 161.526 217.947 160.94C217.968 160.354 218.147 159.788 218.462 159.311C218.776 158.834 219.213 158.468 219.717 158.256C220.222 158.045 220.773 157.999 221.302 158.123Z" fill="white"/>
</svg>
